<mxfile host="app.diagrams.net" agent="Mozilla/5.0 (X11; Linux x86_64) AppleWebKit/537.36 (KHTML, like Gecko) Chrome/130.0.0.0 Safari/537.36" version="25.0.1">
  <diagram name="Page-1" id="POLHNSUYzoH1prWRDZbM">
    <mxGraphModel dx="2762" dy="2193" grid="0" gridSize="10" guides="1" tooltips="1" connect="1" arrows="1" fold="1" page="1" pageScale="1" pageWidth="850" pageHeight="1100" background="none" math="0" shadow="0">
      <root>
        <mxCell id="0" />
        <mxCell id="1" parent="0" />
        <mxCell id="hgPsBDcdBSowXGrfZS2o-11" value="&#39;=&#39;&lt;div&gt;&lt;br&gt;&lt;/div&gt;" style="text;html=1;align=center;verticalAlign=middle;resizable=0;points=[];autosize=1;strokeColor=none;fillColor=none;" parent="1" vertex="1">
          <mxGeometry x="259" y="198" width="30" height="41" as="geometry" />
        </mxCell>
        <mxCell id="hgPsBDcdBSowXGrfZS2o-12" value="" style="group" parent="1" vertex="1" connectable="0">
          <mxGeometry x="81" y="467" width="120" height="50" as="geometry" />
        </mxCell>
        <mxCell id="t6ezfYEOPhDP4UOzndGj-74" style="edgeStyle=none;rounded=0;orthogonalLoop=1;jettySize=auto;html=1;exitX=0;exitY=0.5;exitDx=0;exitDy=0;endArrow=none;endFill=0;" parent="hgPsBDcdBSowXGrfZS2o-12" source="ZuQAkKAsYcVPwidDXJDo-1" edge="1">
          <mxGeometry relative="1" as="geometry">
            <mxPoint x="-271" y="650" as="targetPoint" />
          </mxGeometry>
        </mxCell>
        <mxCell id="ZuQAkKAsYcVPwidDXJDo-1" value="INIT" style="ellipse;whiteSpace=wrap;html=1;" parent="hgPsBDcdBSowXGrfZS2o-12" vertex="1">
          <mxGeometry x="60" width="60" height="50" as="geometry" />
        </mxCell>
        <mxCell id="hgPsBDcdBSowXGrfZS2o-13" style="rounded=0;orthogonalLoop=1;jettySize=auto;html=1;exitX=0.5;exitY=0;exitDx=0;exitDy=0;entryX=0;entryY=1;entryDx=0;entryDy=0;" parent="1" source="ZuQAkKAsYcVPwidDXJDo-1" target="hgPsBDcdBSowXGrfZS2o-7" edge="1">
          <mxGeometry relative="1" as="geometry" />
        </mxCell>
        <mxCell id="hgPsBDcdBSowXGrfZS2o-16" value="&#39;=&#39;" style="text;html=1;align=center;verticalAlign=middle;resizable=0;points=[];autosize=1;strokeColor=none;fillColor=none;" parent="1" vertex="1">
          <mxGeometry x="350" y="-43" width="30" height="26" as="geometry" />
        </mxCell>
        <mxCell id="hgPsBDcdBSowXGrfZS2o-18" value="" style="group" parent="1" vertex="1" connectable="0">
          <mxGeometry x="275" y="49" width="74" height="74" as="geometry" />
        </mxCell>
        <mxCell id="hgPsBDcdBSowXGrfZS2o-2" value="ASSIGN" style="ellipse;whiteSpace=wrap;html=1;aspect=fixed;container=0;" parent="hgPsBDcdBSowXGrfZS2o-18" vertex="1">
          <mxGeometry x="8" y="8" width="58" height="58" as="geometry" />
        </mxCell>
        <mxCell id="hgPsBDcdBSowXGrfZS2o-7" value="" style="ellipse;whiteSpace=wrap;html=1;aspect=fixed;textOpacity=0;fontColor=default;fillColor=none;container=0;" parent="hgPsBDcdBSowXGrfZS2o-18" vertex="1">
          <mxGeometry width="74" height="74" as="geometry" />
        </mxCell>
        <mxCell id="hgPsBDcdBSowXGrfZS2o-20" style="rounded=0;orthogonalLoop=1;jettySize=auto;html=1;entryX=0.356;entryY=0.94;entryDx=0;entryDy=0;exitX=0.5;exitY=0;exitDx=0;exitDy=0;entryPerimeter=0;" parent="1" source="hgPsBDcdBSowXGrfZS2o-7" target="hgPsBDcdBSowXGrfZS2o-17" edge="1">
          <mxGeometry relative="1" as="geometry">
            <mxPoint x="385" y="-83" as="sourcePoint" />
          </mxGeometry>
        </mxCell>
        <mxCell id="hgPsBDcdBSowXGrfZS2o-22" value="&#39;+&#39;" style="text;html=1;align=center;verticalAlign=middle;resizable=0;points=[];autosize=1;strokeColor=none;fillColor=none;" parent="1" vertex="1">
          <mxGeometry x="559" y="310" width="30" height="26" as="geometry" />
        </mxCell>
        <mxCell id="hgPsBDcdBSowXGrfZS2o-25" value="" style="group" parent="1" vertex="1" connectable="0">
          <mxGeometry x="654" y="260" width="80" height="80" as="geometry" />
        </mxCell>
        <mxCell id="hgPsBDcdBSowXGrfZS2o-23" value="" style="ellipse;whiteSpace=wrap;html=1;aspect=fixed;" parent="hgPsBDcdBSowXGrfZS2o-25" vertex="1">
          <mxGeometry x="8" y="8" width="64" height="64" as="geometry" />
        </mxCell>
        <mxCell id="hgPsBDcdBSowXGrfZS2o-24" value="ADD" style="ellipse;whiteSpace=wrap;html=1;aspect=fixed;fillColor=none;" parent="hgPsBDcdBSowXGrfZS2o-25" vertex="1">
          <mxGeometry width="80" height="80" as="geometry" />
        </mxCell>
        <mxCell id="hgPsBDcdBSowXGrfZS2o-26" style="edgeStyle=none;rounded=0;orthogonalLoop=1;jettySize=auto;html=1;exitX=1;exitY=1;exitDx=0;exitDy=0;" parent="1" source="ZuQAkKAsYcVPwidDXJDo-1" target="hgPsBDcdBSowXGrfZS2o-27" edge="1">
          <mxGeometry relative="1" as="geometry">
            <mxPoint x="247" y="556" as="targetPoint" />
          </mxGeometry>
        </mxCell>
        <mxCell id="hgPsBDcdBSowXGrfZS2o-29" value="&#39;-&#39;&lt;div&gt;&lt;br&gt;&lt;/div&gt;" style="text;html=1;align=center;verticalAlign=middle;resizable=0;points=[];autosize=1;strokeColor=none;fillColor=none;" parent="1" vertex="1">
          <mxGeometry x="415" y="415.5" width="27" height="41" as="geometry" />
        </mxCell>
        <mxCell id="hgPsBDcdBSowXGrfZS2o-35" value="" style="group" parent="1" vertex="1" connectable="0">
          <mxGeometry x="554" y="473" width="80" height="80" as="geometry" />
        </mxCell>
        <mxCell id="hgPsBDcdBSowXGrfZS2o-33" value="" style="ellipse;whiteSpace=wrap;html=1;aspect=fixed;" parent="hgPsBDcdBSowXGrfZS2o-35" vertex="1">
          <mxGeometry width="80" height="80" as="geometry" />
        </mxCell>
        <mxCell id="hgPsBDcdBSowXGrfZS2o-40" style="edgeStyle=none;rounded=0;orthogonalLoop=1;jettySize=auto;html=1;exitX=1;exitY=0.5;exitDx=0;exitDy=0;" parent="hgPsBDcdBSowXGrfZS2o-35" source="hgPsBDcdBSowXGrfZS2o-34" edge="1">
          <mxGeometry relative="1" as="geometry">
            <mxPoint x="213" y="40.5" as="targetPoint" />
          </mxGeometry>
        </mxCell>
        <mxCell id="hgPsBDcdBSowXGrfZS2o-34" value="DIV" style="ellipse;whiteSpace=wrap;html=1;aspect=fixed;fillColor=none;" parent="hgPsBDcdBSowXGrfZS2o-35" vertex="1">
          <mxGeometry x="5" y="5" width="70" height="70" as="geometry" />
        </mxCell>
        <mxCell id="hgPsBDcdBSowXGrfZS2o-36" value="" style="group" parent="1" vertex="1" connectable="0">
          <mxGeometry x="627" y="619" width="80" height="80" as="geometry" />
        </mxCell>
        <mxCell id="hgPsBDcdBSowXGrfZS2o-31" value="" style="ellipse;whiteSpace=wrap;html=1;aspect=fixed;" parent="hgPsBDcdBSowXGrfZS2o-36" vertex="1">
          <mxGeometry width="80" height="80" as="geometry" />
        </mxCell>
        <mxCell id="hgPsBDcdBSowXGrfZS2o-32" value="MUL" style="ellipse;whiteSpace=wrap;html=1;aspect=fixed;fillColor=none;" parent="hgPsBDcdBSowXGrfZS2o-36" vertex="1">
          <mxGeometry x="6" y="6.5" width="68" height="68" as="geometry" />
        </mxCell>
        <mxCell id="hgPsBDcdBSowXGrfZS2o-37" value="" style="endArrow=classic;html=1;rounded=0;entryX=0;entryY=0.5;entryDx=0;entryDy=0;exitX=0.667;exitY=0.98;exitDx=0;exitDy=0;exitPerimeter=0;" parent="1" source="ZuQAkKAsYcVPwidDXJDo-1" target="hgPsBDcdBSowXGrfZS2o-34" edge="1">
          <mxGeometry width="50" height="50" relative="1" as="geometry">
            <mxPoint x="65" y="567" as="sourcePoint" />
            <mxPoint x="115" y="517" as="targetPoint" />
          </mxGeometry>
        </mxCell>
        <mxCell id="hgPsBDcdBSowXGrfZS2o-38" value="" style="group" parent="1" vertex="1" connectable="0">
          <mxGeometry x="598" y="354" width="80" height="80" as="geometry" />
        </mxCell>
        <mxCell id="hgPsBDcdBSowXGrfZS2o-27" value="" style="ellipse;whiteSpace=wrap;html=1;aspect=fixed;" parent="hgPsBDcdBSowXGrfZS2o-38" vertex="1">
          <mxGeometry width="80" height="80" as="geometry" />
        </mxCell>
        <mxCell id="hgPsBDcdBSowXGrfZS2o-28" value="SUB" style="ellipse;whiteSpace=wrap;html=1;aspect=fixed;fillColor=none;" parent="hgPsBDcdBSowXGrfZS2o-38" vertex="1">
          <mxGeometry x="8.5" y="8.5" width="63" height="63" as="geometry" />
        </mxCell>
        <mxCell id="hgPsBDcdBSowXGrfZS2o-39" value="&#39;/&#39;" style="text;html=1;align=center;verticalAlign=middle;resizable=0;points=[];autosize=1;strokeColor=none;fillColor=none;" parent="1" vertex="1">
          <mxGeometry x="387" y="479" width="26" height="26" as="geometry" />
        </mxCell>
        <mxCell id="hgPsBDcdBSowXGrfZS2o-41" value="&#39;/&#39;&lt;div&gt;&lt;br&gt;&lt;/div&gt;" style="text;html=1;align=center;verticalAlign=middle;resizable=0;points=[];autosize=1;strokeColor=none;fillColor=none;" parent="1" vertex="1">
          <mxGeometry x="681" y="478" width="26" height="41" as="geometry" />
        </mxCell>
        <mxCell id="hgPsBDcdBSowXGrfZS2o-42" value="COMMENT" style="ellipse;whiteSpace=wrap;html=1;aspect=fixed;" parent="1" vertex="1">
          <mxGeometry x="768" y="473" width="80" height="80" as="geometry" />
        </mxCell>
        <mxCell id="hgPsBDcdBSowXGrfZS2o-21" style="edgeStyle=none;rounded=0;orthogonalLoop=1;jettySize=auto;html=1;exitX=1;exitY=0.5;exitDx=0;exitDy=0;entryX=0.05;entryY=0.688;entryDx=0;entryDy=0;entryPerimeter=0;" parent="1" source="ZuQAkKAsYcVPwidDXJDo-1" target="hgPsBDcdBSowXGrfZS2o-24" edge="1">
          <mxGeometry relative="1" as="geometry">
            <mxPoint x="278" y="492" as="targetPoint" />
          </mxGeometry>
        </mxCell>
        <mxCell id="hgPsBDcdBSowXGrfZS2o-30" style="edgeStyle=none;rounded=0;orthogonalLoop=1;jettySize=auto;html=1;exitX=0.5;exitY=1;exitDx=0;exitDy=0;entryX=0;entryY=0;entryDx=0;entryDy=0;" parent="1" source="ZuQAkKAsYcVPwidDXJDo-1" target="hgPsBDcdBSowXGrfZS2o-32" edge="1">
          <mxGeometry relative="1" as="geometry">
            <mxPoint x="171" y="617" as="targetPoint" />
          </mxGeometry>
        </mxCell>
        <mxCell id="hgPsBDcdBSowXGrfZS2o-49" value="&#39;*&#39;" style="text;html=1;align=center;verticalAlign=middle;resizable=0;points=[];autosize=1;strokeColor=none;fillColor=none;" parent="1" vertex="1">
          <mxGeometry x="422" y="555" width="27" height="26" as="geometry" />
        </mxCell>
        <mxCell id="hgPsBDcdBSowXGrfZS2o-56" style="edgeStyle=none;rounded=0;orthogonalLoop=1;jettySize=auto;html=1;exitX=0.967;exitY=0.811;exitDx=0;exitDy=0;exitPerimeter=0;entryX=0.033;entryY=0.313;entryDx=0;entryDy=0;entryPerimeter=0;" parent="1" source="hgPsBDcdBSowXGrfZS2o-50" target="hgPsBDcdBSowXGrfZS2o-53" edge="1">
          <mxGeometry relative="1" as="geometry">
            <mxPoint x="582" y="854" as="targetPoint" />
          </mxGeometry>
        </mxCell>
        <mxCell id="hgPsBDcdBSowXGrfZS2o-50" value="EXCLAMATION&lt;div&gt;MARK&lt;/div&gt;" style="ellipse;whiteSpace=wrap;html=1;aspect=fixed;" parent="1" vertex="1">
          <mxGeometry x="380" y="646" width="90" height="90" as="geometry" />
        </mxCell>
        <mxCell id="hgPsBDcdBSowXGrfZS2o-52" style="edgeStyle=none;rounded=0;orthogonalLoop=1;jettySize=auto;html=1;exitX=0.5;exitY=1;exitDx=0;exitDy=0;" parent="1" source="ZuQAkKAsYcVPwidDXJDo-1" target="hgPsBDcdBSowXGrfZS2o-50" edge="1">
          <mxGeometry relative="1" as="geometry" />
        </mxCell>
        <mxCell id="hgPsBDcdBSowXGrfZS2o-55" value="" style="group" parent="1" vertex="1" connectable="0">
          <mxGeometry x="650" y="755" width="80" height="80" as="geometry" />
        </mxCell>
        <mxCell id="hgPsBDcdBSowXGrfZS2o-53" value="" style="ellipse;whiteSpace=wrap;html=1;aspect=fixed;" parent="hgPsBDcdBSowXGrfZS2o-55" vertex="1">
          <mxGeometry width="80" height="80" as="geometry" />
        </mxCell>
        <mxCell id="hgPsBDcdBSowXGrfZS2o-54" value="NOT&lt;div&gt;EQUAL&lt;/div&gt;" style="ellipse;whiteSpace=wrap;html=1;aspect=fixed;fillColor=none;" parent="hgPsBDcdBSowXGrfZS2o-55" vertex="1">
          <mxGeometry x="5" y="5" width="70" height="70" as="geometry" />
        </mxCell>
        <mxCell id="hgPsBDcdBSowXGrfZS2o-57" value="&#39;!&#39;" style="text;html=1;align=center;verticalAlign=middle;resizable=0;points=[];autosize=1;strokeColor=none;fillColor=none;" parent="1" vertex="1">
          <mxGeometry x="319" y="593" width="26" height="26" as="geometry" />
        </mxCell>
        <mxCell id="hgPsBDcdBSowXGrfZS2o-58" value="&#39;=&#39;" style="text;html=1;align=center;verticalAlign=middle;resizable=0;points=[];autosize=1;strokeColor=none;fillColor=none;" parent="1" vertex="1">
          <mxGeometry x="537" y="726" width="30" height="26" as="geometry" />
        </mxCell>
        <mxCell id="hgPsBDcdBSowXGrfZS2o-64" style="edgeStyle=none;rounded=0;orthogonalLoop=1;jettySize=auto;html=1;" parent="1" target="hgPsBDcdBSowXGrfZS2o-65" edge="1">
          <mxGeometry relative="1" as="geometry">
            <mxPoint x="66" y="685" as="targetPoint" />
            <mxPoint x="174" y="517" as="sourcePoint" />
          </mxGeometry>
        </mxCell>
        <mxCell id="hgPsBDcdBSowXGrfZS2o-67" value="" style="group" parent="1" vertex="1" connectable="0">
          <mxGeometry x="328" y="728" width="80" height="80" as="geometry" />
        </mxCell>
        <mxCell id="hgPsBDcdBSowXGrfZS2o-65" value="LESS THAN" style="ellipse;whiteSpace=wrap;html=1;aspect=fixed;" parent="hgPsBDcdBSowXGrfZS2o-67" vertex="1">
          <mxGeometry width="80" height="80" as="geometry" />
        </mxCell>
        <mxCell id="hgPsBDcdBSowXGrfZS2o-66" value="" style="ellipse;whiteSpace=wrap;html=1;aspect=fixed;fillColor=none;" parent="hgPsBDcdBSowXGrfZS2o-67" vertex="1">
          <mxGeometry x="5" y="5" width="70" height="70" as="geometry" />
        </mxCell>
        <mxCell id="hgPsBDcdBSowXGrfZS2o-68" value="&#39;&amp;lt;&#39;" style="text;html=1;align=center;verticalAlign=middle;resizable=0;points=[];autosize=1;strokeColor=none;fillColor=none;" parent="1" vertex="1">
          <mxGeometry x="289" y="646" width="30" height="26" as="geometry" />
        </mxCell>
        <mxCell id="hgPsBDcdBSowXGrfZS2o-69" style="edgeStyle=none;rounded=0;orthogonalLoop=1;jettySize=auto;html=1;exitX=0.5;exitY=1;exitDx=0;exitDy=0;" parent="1" source="hgPsBDcdBSowXGrfZS2o-65" target="hgPsBDcdBSowXGrfZS2o-70" edge="1">
          <mxGeometry relative="1" as="geometry">
            <mxPoint x="66" y="843" as="targetPoint" />
          </mxGeometry>
        </mxCell>
        <mxCell id="hgPsBDcdBSowXGrfZS2o-72" value="" style="group" parent="1" vertex="1" connectable="0">
          <mxGeometry x="505" y="866" width="80" height="80" as="geometry" />
        </mxCell>
        <mxCell id="hgPsBDcdBSowXGrfZS2o-70" value="" style="ellipse;whiteSpace=wrap;html=1;aspect=fixed;" parent="hgPsBDcdBSowXGrfZS2o-72" vertex="1">
          <mxGeometry width="80" height="80" as="geometry" />
        </mxCell>
        <mxCell id="hgPsBDcdBSowXGrfZS2o-71" value="LESSER&lt;div&gt;EQUAL&lt;/div&gt;" style="ellipse;whiteSpace=wrap;html=1;aspect=fixed;fillColor=none;" parent="hgPsBDcdBSowXGrfZS2o-72" vertex="1">
          <mxGeometry x="5.5" y="5.5" width="69" height="69" as="geometry" />
        </mxCell>
        <mxCell id="hgPsBDcdBSowXGrfZS2o-73" value="&#39;=&#39;" style="text;html=1;align=center;verticalAlign=middle;resizable=0;points=[];autosize=1;strokeColor=none;fillColor=none;" parent="1" vertex="1">
          <mxGeometry x="434" y="819" width="30" height="26" as="geometry" />
        </mxCell>
        <mxCell id="hgPsBDcdBSowXGrfZS2o-78" value="" style="group" parent="1" vertex="1" connectable="0">
          <mxGeometry y="750" width="80" height="80" as="geometry" />
        </mxCell>
        <mxCell id="hgPsBDcdBSowXGrfZS2o-74" value="GREATER THAN" style="ellipse;whiteSpace=wrap;html=1;aspect=fixed;" parent="hgPsBDcdBSowXGrfZS2o-78" vertex="1">
          <mxGeometry width="80" height="80" as="geometry" />
        </mxCell>
        <mxCell id="hgPsBDcdBSowXGrfZS2o-76" value="" style="ellipse;whiteSpace=wrap;html=1;aspect=fixed;fillColor=none;" parent="hgPsBDcdBSowXGrfZS2o-78" vertex="1">
          <mxGeometry x="5.6299999999999955" y="5.6299999999999955" width="68.75" height="68.75" as="geometry" />
        </mxCell>
        <mxCell id="hgPsBDcdBSowXGrfZS2o-80" value="" style="group" parent="1" vertex="1" connectable="0">
          <mxGeometry x="-64" y="968" width="80" height="80" as="geometry" />
        </mxCell>
        <mxCell id="hgPsBDcdBSowXGrfZS2o-75" value="GREATER&lt;div&gt;EQUAL&lt;/div&gt;" style="ellipse;whiteSpace=wrap;html=1;aspect=fixed;" parent="hgPsBDcdBSowXGrfZS2o-80" vertex="1">
          <mxGeometry width="80" height="80" as="geometry" />
        </mxCell>
        <mxCell id="hgPsBDcdBSowXGrfZS2o-79" value="" style="ellipse;whiteSpace=wrap;html=1;aspect=fixed;fillColor=none;" parent="hgPsBDcdBSowXGrfZS2o-80" vertex="1">
          <mxGeometry x="4.5" y="4.5" width="71" height="71" as="geometry" />
        </mxCell>
        <mxCell id="hgPsBDcdBSowXGrfZS2o-81" value="" style="endArrow=classic;html=1;rounded=0;exitX=0;exitY=1;exitDx=0;exitDy=0;entryX=0.5;entryY=0;entryDx=0;entryDy=0;" parent="1" source="ZuQAkKAsYcVPwidDXJDo-1" target="hgPsBDcdBSowXGrfZS2o-74" edge="1">
          <mxGeometry width="50" height="50" relative="1" as="geometry">
            <mxPoint x="-233" y="567" as="sourcePoint" />
            <mxPoint x="41" y="626" as="targetPoint" />
          </mxGeometry>
        </mxCell>
        <mxCell id="hgPsBDcdBSowXGrfZS2o-82" style="edgeStyle=none;rounded=0;orthogonalLoop=1;jettySize=auto;html=1;exitX=0.247;exitY=0.971;exitDx=0;exitDy=0;entryX=0.613;entryY=0.013;entryDx=0;entryDy=0;entryPerimeter=0;exitPerimeter=0;" parent="1" source="hgPsBDcdBSowXGrfZS2o-76" target="hgPsBDcdBSowXGrfZS2o-75" edge="1">
          <mxGeometry relative="1" as="geometry" />
        </mxCell>
        <mxCell id="hgPsBDcdBSowXGrfZS2o-83" value="&#39;&amp;gt;&#39;" style="text;html=1;align=center;verticalAlign=middle;resizable=0;points=[];autosize=1;strokeColor=none;fillColor=none;" parent="1" vertex="1">
          <mxGeometry x="77" y="678" width="30" height="26" as="geometry" />
        </mxCell>
        <mxCell id="hgPsBDcdBSowXGrfZS2o-84" value="&#39;=&#39;" style="text;html=1;align=center;verticalAlign=middle;resizable=0;points=[];autosize=1;strokeColor=none;fillColor=none;" parent="1" vertex="1">
          <mxGeometry x="16" y="881" width="30" height="26" as="geometry" />
        </mxCell>
        <mxCell id="hgPsBDcdBSowXGrfZS2o-94" value="" style="group" parent="1" vertex="1" connectable="0">
          <mxGeometry x="-50" y="224" width="80" height="80" as="geometry" />
        </mxCell>
        <mxCell id="hgPsBDcdBSowXGrfZS2o-86" value="R_CURLY&lt;div&gt;BRACKET&lt;/div&gt;" style="ellipse;whiteSpace=wrap;html=1;aspect=fixed;" parent="hgPsBDcdBSowXGrfZS2o-94" vertex="1">
          <mxGeometry width="80" height="80" as="geometry" />
        </mxCell>
        <mxCell id="hgPsBDcdBSowXGrfZS2o-90" value="" style="ellipse;whiteSpace=wrap;html=1;aspect=fixed;fillColor=none;" parent="hgPsBDcdBSowXGrfZS2o-94" vertex="1">
          <mxGeometry x="4.75" y="4.75" width="70.5" height="70.5" as="geometry" />
        </mxCell>
        <mxCell id="hgPsBDcdBSowXGrfZS2o-95" value="" style="group" parent="1" vertex="1" connectable="0">
          <mxGeometry x="-138" y="268.5" width="80" height="80" as="geometry" />
        </mxCell>
        <mxCell id="hgPsBDcdBSowXGrfZS2o-85" value="L_CURLY&lt;div&gt;BRACKET&lt;/div&gt;" style="ellipse;whiteSpace=wrap;html=1;aspect=fixed;" parent="hgPsBDcdBSowXGrfZS2o-95" vertex="1">
          <mxGeometry width="80" height="80" as="geometry" />
        </mxCell>
        <mxCell id="hgPsBDcdBSowXGrfZS2o-91" value="" style="ellipse;whiteSpace=wrap;html=1;aspect=fixed;fillColor=none;" parent="hgPsBDcdBSowXGrfZS2o-95" vertex="1">
          <mxGeometry x="3.5" y="3.5" width="73" height="73" as="geometry" />
        </mxCell>
        <mxCell id="hgPsBDcdBSowXGrfZS2o-96" value="" style="group" parent="1" vertex="1" connectable="0">
          <mxGeometry x="139" y="168" width="81" height="81" as="geometry" />
        </mxCell>
        <mxCell id="hgPsBDcdBSowXGrfZS2o-88" value="" style="ellipse;whiteSpace=wrap;html=1;aspect=fixed;fillColor=none;" parent="hgPsBDcdBSowXGrfZS2o-96" vertex="1">
          <mxGeometry width="81" height="81" as="geometry" />
        </mxCell>
        <mxCell id="hgPsBDcdBSowXGrfZS2o-89" value="R_ROUND&lt;div&gt;BRACKET&lt;/div&gt;" style="ellipse;whiteSpace=wrap;html=1;aspect=fixed;" parent="hgPsBDcdBSowXGrfZS2o-96" vertex="1">
          <mxGeometry x="3" y="3" width="75" height="75" as="geometry" />
        </mxCell>
        <mxCell id="hgPsBDcdBSowXGrfZS2o-97" value="" style="group" parent="1" vertex="1" connectable="0">
          <mxGeometry x="32" y="193.5" width="75" height="75" as="geometry" />
        </mxCell>
        <mxCell id="hgPsBDcdBSowXGrfZS2o-87" value="L_&lt;span style=&quot;background-color: initial;&quot;&gt;ROUND&lt;/span&gt;&lt;div&gt;&lt;span style=&quot;background-color: initial;&quot;&gt;BRACKET&lt;/span&gt;&lt;/div&gt;" style="ellipse;whiteSpace=wrap;html=1;aspect=fixed;" parent="hgPsBDcdBSowXGrfZS2o-97" vertex="1">
          <mxGeometry width="75" height="75" as="geometry" />
        </mxCell>
        <mxCell id="hgPsBDcdBSowXGrfZS2o-92" value="" style="ellipse;whiteSpace=wrap;html=1;aspect=fixed;fillColor=none;" parent="hgPsBDcdBSowXGrfZS2o-97" vertex="1">
          <mxGeometry x="3.5" y="3.5" width="68" height="68" as="geometry" />
        </mxCell>
        <mxCell id="hgPsBDcdBSowXGrfZS2o-98" style="edgeStyle=none;rounded=0;orthogonalLoop=1;jettySize=auto;html=1;exitX=0.5;exitY=0;exitDx=0;exitDy=0;entryX=0.383;entryY=1.012;entryDx=0;entryDy=0;entryPerimeter=0;" parent="1" source="ZuQAkKAsYcVPwidDXJDo-1" target="hgPsBDcdBSowXGrfZS2o-88" edge="1">
          <mxGeometry relative="1" as="geometry" />
        </mxCell>
        <mxCell id="hgPsBDcdBSowXGrfZS2o-99" value="&#39;)&#39;" style="text;html=1;align=center;verticalAlign=middle;resizable=0;points=[];autosize=1;strokeColor=none;fillColor=none;" parent="1" vertex="1">
          <mxGeometry x="174.5" y="328" width="27" height="26" as="geometry" />
        </mxCell>
        <mxCell id="hgPsBDcdBSowXGrfZS2o-104" style="edgeStyle=none;rounded=0;orthogonalLoop=1;jettySize=auto;html=1;exitX=0.5;exitY=0;exitDx=0;exitDy=0;entryX=0.625;entryY=1.044;entryDx=0;entryDy=0;entryPerimeter=0;" parent="1" source="ZuQAkKAsYcVPwidDXJDo-1" target="hgPsBDcdBSowXGrfZS2o-92" edge="1">
          <mxGeometry relative="1" as="geometry" />
        </mxCell>
        <mxCell id="hgPsBDcdBSowXGrfZS2o-105" value="&#39;(&#39;" style="text;html=1;align=center;verticalAlign=middle;resizable=0;points=[];autosize=1;strokeColor=none;fillColor=none;" parent="1" vertex="1">
          <mxGeometry x="112" y="314" width="27" height="26" as="geometry" />
        </mxCell>
        <mxCell id="hgPsBDcdBSowXGrfZS2o-107" style="edgeStyle=none;rounded=0;orthogonalLoop=1;jettySize=auto;html=1;exitX=0.5;exitY=0;exitDx=0;exitDy=0;entryX=0.638;entryY=0.963;entryDx=0;entryDy=0;entryPerimeter=0;" parent="1" source="ZuQAkKAsYcVPwidDXJDo-1" target="hgPsBDcdBSowXGrfZS2o-86" edge="1">
          <mxGeometry relative="1" as="geometry" />
        </mxCell>
        <mxCell id="hgPsBDcdBSowXGrfZS2o-108" value="&#39;}&#39;" style="text;html=1;align=center;verticalAlign=middle;resizable=0;points=[];autosize=1;strokeColor=none;fillColor=none;" parent="1" vertex="1">
          <mxGeometry x="50.5" y="328" width="27" height="26" as="geometry" />
        </mxCell>
        <mxCell id="hgPsBDcdBSowXGrfZS2o-110" style="edgeStyle=none;rounded=0;orthogonalLoop=1;jettySize=auto;html=1;exitX=0.5;exitY=0;exitDx=0;exitDy=0;entryX=0.664;entryY=1.007;entryDx=0;entryDy=0;entryPerimeter=0;" parent="1" source="ZuQAkKAsYcVPwidDXJDo-1" target="hgPsBDcdBSowXGrfZS2o-91" edge="1">
          <mxGeometry relative="1" as="geometry" />
        </mxCell>
        <mxCell id="hgPsBDcdBSowXGrfZS2o-111" value="&#39;{&#39;" style="text;html=1;align=center;verticalAlign=middle;resizable=0;points=[];autosize=1;strokeColor=none;fillColor=none;" parent="1" vertex="1">
          <mxGeometry x="5" y="364" width="27" height="26" as="geometry" />
        </mxCell>
        <mxCell id="hgPsBDcdBSowXGrfZS2o-112" value="U8" style="ellipse;whiteSpace=wrap;html=1;aspect=fixed;" parent="1" vertex="1">
          <mxGeometry x="-185" y="412" width="76" height="76" as="geometry" />
        </mxCell>
        <mxCell id="hgPsBDcdBSowXGrfZS2o-113" style="edgeStyle=none;rounded=0;orthogonalLoop=1;jettySize=auto;html=1;exitX=0.5;exitY=0;exitDx=0;exitDy=0;entryX=1;entryY=0.5;entryDx=0;entryDy=0;" parent="1" source="ZuQAkKAsYcVPwidDXJDo-1" target="hgPsBDcdBSowXGrfZS2o-112" edge="1">
          <mxGeometry relative="1" as="geometry">
            <mxPoint x="-107" y="443" as="targetPoint" />
          </mxGeometry>
        </mxCell>
        <mxCell id="hgPsBDcdBSowXGrfZS2o-114" value="&#39;[&#39;" style="text;html=1;align=center;verticalAlign=middle;resizable=0;points=[];autosize=1;strokeColor=none;fillColor=none;" parent="1" vertex="1">
          <mxGeometry x="-27" y="423" width="26" height="26" as="geometry" />
        </mxCell>
        <mxCell id="hgPsBDcdBSowXGrfZS2o-121" value="" style="group" parent="1" vertex="1" connectable="0">
          <mxGeometry x="-257" y="491" width="80" height="80" as="geometry" />
        </mxCell>
        <mxCell id="hgPsBDcdBSowXGrfZS2o-119" value="VERTICAL&lt;div&gt;BAR&lt;/div&gt;" style="ellipse;whiteSpace=wrap;html=1;aspect=fixed;" parent="hgPsBDcdBSowXGrfZS2o-121" vertex="1">
          <mxGeometry width="80" height="80" as="geometry" />
        </mxCell>
        <mxCell id="hgPsBDcdBSowXGrfZS2o-120" value="" style="ellipse;whiteSpace=wrap;html=1;aspect=fixed;fillColor=none;" parent="hgPsBDcdBSowXGrfZS2o-121" vertex="1">
          <mxGeometry x="5" y="5" width="70" height="70" as="geometry" />
        </mxCell>
        <mxCell id="hgPsBDcdBSowXGrfZS2o-115" style="edgeStyle=none;rounded=0;orthogonalLoop=1;jettySize=auto;html=1;exitX=0;exitY=0;exitDx=0;exitDy=0;entryX=0.938;entryY=0.25;entryDx=0;entryDy=0;entryPerimeter=0;" parent="1" source="ZuQAkKAsYcVPwidDXJDo-1" target="hgPsBDcdBSowXGrfZS2o-119" edge="1">
          <mxGeometry relative="1" as="geometry">
            <mxPoint x="-160" y="514" as="targetPoint" />
          </mxGeometry>
        </mxCell>
        <mxCell id="hgPsBDcdBSowXGrfZS2o-122" value="&#39;|&#39;" style="text;html=1;align=center;verticalAlign=middle;resizable=0;points=[];autosize=1;strokeColor=none;fillColor=none;" parent="1" vertex="1">
          <mxGeometry x="-29" y="493" width="26" height="26" as="geometry" />
        </mxCell>
        <mxCell id="hgPsBDcdBSowXGrfZS2o-124" value="&#39;?&#39;" style="text;html=1;align=center;verticalAlign=middle;resizable=0;points=[];autosize=1;strokeColor=none;fillColor=none;" parent="1" vertex="1">
          <mxGeometry x="-11" y="527" width="29" height="26" as="geometry" />
        </mxCell>
        <mxCell id="hgPsBDcdBSowXGrfZS2o-125" value="QUESTION MARK" style="ellipse;whiteSpace=wrap;html=1;aspect=fixed;" parent="1" vertex="1">
          <mxGeometry x="-577" y="732" width="80" height="80" as="geometry" />
        </mxCell>
        <mxCell id="hgPsBDcdBSowXGrfZS2o-123" style="edgeStyle=none;rounded=0;orthogonalLoop=1;jettySize=auto;html=1;exitX=0;exitY=0.5;exitDx=0;exitDy=0;entryX=1;entryY=0.5;entryDx=0;entryDy=0;" parent="1" source="ZuQAkKAsYcVPwidDXJDo-1" target="hgPsBDcdBSowXGrfZS2o-125" edge="1">
          <mxGeometry relative="1" as="geometry">
            <mxPoint x="-134" y="624.3333333333333" as="targetPoint" />
          </mxGeometry>
        </mxCell>
        <mxCell id="hgPsBDcdBSowXGrfZS2o-130" value="" style="curved=1;endArrow=classic;html=1;rounded=0;exitX=0;exitY=0;exitDx=0;exitDy=0;entryX=0;entryY=0.5;entryDx=0;entryDy=0;" parent="1" source="hgPsBDcdBSowXGrfZS2o-125" edge="1">
          <mxGeometry width="50" height="50" relative="1" as="geometry">
            <mxPoint x="-237" y="618.5" as="sourcePoint" />
            <mxPoint x="-185" y="443.5" as="targetPoint" />
            <Array as="points">
              <mxPoint x="-435" y="636.5" />
              <mxPoint x="-490" y="619" />
              <mxPoint x="-485" y="586.5" />
            </Array>
          </mxGeometry>
        </mxCell>
        <mxCell id="hgPsBDcdBSowXGrfZS2o-131" value="&#39;[&#39;" style="text;html=1;align=center;verticalAlign=middle;resizable=0;points=[];autosize=1;strokeColor=none;fillColor=none;" parent="1" vertex="1">
          <mxGeometry x="-409" y="505" width="26" height="26" as="geometry" />
        </mxCell>
        <mxCell id="hgPsBDcdBSowXGrfZS2o-134" value="" style="group" parent="1" vertex="1" connectable="0">
          <mxGeometry x="-492" y="827" width="80" height="80" as="geometry" />
        </mxCell>
        <mxCell id="hgPsBDcdBSowXGrfZS2o-132" value="EOF" style="ellipse;whiteSpace=wrap;html=1;aspect=fixed;" parent="hgPsBDcdBSowXGrfZS2o-134" vertex="1">
          <mxGeometry width="80" height="80" as="geometry" />
        </mxCell>
        <mxCell id="hgPsBDcdBSowXGrfZS2o-133" value="" style="ellipse;whiteSpace=wrap;html=1;aspect=fixed;fillColor=none;" parent="hgPsBDcdBSowXGrfZS2o-134" vertex="1">
          <mxGeometry x="5.75" y="5.75" width="68.5" height="68.5" as="geometry" />
        </mxCell>
        <mxCell id="hgPsBDcdBSowXGrfZS2o-135" style="edgeStyle=none;rounded=0;orthogonalLoop=1;jettySize=auto;html=1;exitX=0;exitY=0.5;exitDx=0;exitDy=0;entryX=1;entryY=0;entryDx=0;entryDy=0;" parent="1" source="ZuQAkKAsYcVPwidDXJDo-1" target="hgPsBDcdBSowXGrfZS2o-132" edge="1">
          <mxGeometry relative="1" as="geometry" />
        </mxCell>
        <mxCell id="hgPsBDcdBSowXGrfZS2o-136" value="EOF" style="text;html=1;align=center;verticalAlign=middle;resizable=0;points=[];autosize=1;strokeColor=none;fillColor=none;" parent="1" vertex="1">
          <mxGeometry x="-225" y="672" width="43" height="26" as="geometry" />
        </mxCell>
        <mxCell id="hgPsBDcdBSowXGrfZS2o-137" value="" style="group" parent="1" vertex="1" connectable="0">
          <mxGeometry x="338" y="-180" width="80" height="80" as="geometry" />
        </mxCell>
        <mxCell id="hgPsBDcdBSowXGrfZS2o-15" value="" style="ellipse;whiteSpace=wrap;html=1;aspect=fixed;" parent="hgPsBDcdBSowXGrfZS2o-137" vertex="1">
          <mxGeometry x="4.5" y="4.5" width="71" height="71" as="geometry" />
        </mxCell>
        <mxCell id="hgPsBDcdBSowXGrfZS2o-17" value="EQUAL" style="ellipse;whiteSpace=wrap;html=1;aspect=fixed;fillColor=none;" parent="hgPsBDcdBSowXGrfZS2o-137" vertex="1">
          <mxGeometry width="80" height="80" as="geometry" />
        </mxCell>
        <mxCell id="t6ezfYEOPhDP4UOzndGj-4" value="" style="group" parent="1" vertex="1" connectable="0">
          <mxGeometry x="42" y="1039" width="80" height="80" as="geometry" />
        </mxCell>
        <mxCell id="t6ezfYEOPhDP4UOzndGj-1" value="SEMICOLON" style="ellipse;whiteSpace=wrap;html=1;aspect=fixed;" parent="t6ezfYEOPhDP4UOzndGj-4" vertex="1">
          <mxGeometry width="80" height="80" as="geometry" />
        </mxCell>
        <mxCell id="t6ezfYEOPhDP4UOzndGj-2" value="" style="ellipse;whiteSpace=wrap;html=1;aspect=fixed;fillColor=none;container=1;" parent="t6ezfYEOPhDP4UOzndGj-4" vertex="1">
          <mxGeometry x="5" y="5" width="70" height="70" as="geometry" />
        </mxCell>
        <mxCell id="t6ezfYEOPhDP4UOzndGj-7" style="edgeStyle=none;rounded=0;orthogonalLoop=1;jettySize=auto;html=1;exitX=0;exitY=1;exitDx=0;exitDy=0;entryX=0.273;entryY=-0.003;entryDx=0;entryDy=0;entryPerimeter=0;" parent="1" source="ZuQAkKAsYcVPwidDXJDo-1" target="t6ezfYEOPhDP4UOzndGj-2" edge="1">
          <mxGeometry relative="1" as="geometry" />
        </mxCell>
        <mxCell id="t6ezfYEOPhDP4UOzndGj-8" value="&#39;;&#39;" style="text;html=1;align=center;verticalAlign=middle;resizable=0;points=[];autosize=1;strokeColor=none;fillColor=none;" parent="1" vertex="1">
          <mxGeometry x="122" y="663" width="26" height="26" as="geometry" />
        </mxCell>
        <mxCell id="t6ezfYEOPhDP4UOzndGj-10" value="EOF" style="text;html=1;align=center;verticalAlign=middle;resizable=0;points=[];autosize=1;strokeColor=none;fillColor=none;" parent="1" vertex="1">
          <mxGeometry x="151" y="875" width="43" height="26" as="geometry" />
        </mxCell>
        <mxCell id="t6ezfYEOPhDP4UOzndGj-13" value="" style="group" parent="1" vertex="1" connectable="0">
          <mxGeometry x="166" y="1023" width="80" height="80" as="geometry" />
        </mxCell>
        <mxCell id="t6ezfYEOPhDP4UOzndGj-11" value="EOF" style="ellipse;whiteSpace=wrap;html=1;aspect=fixed;" parent="t6ezfYEOPhDP4UOzndGj-13" vertex="1">
          <mxGeometry width="80" height="80" as="geometry" />
        </mxCell>
        <mxCell id="t6ezfYEOPhDP4UOzndGj-12" value="" style="ellipse;whiteSpace=wrap;html=1;aspect=fixed;fillColor=none;" parent="t6ezfYEOPhDP4UOzndGj-13" vertex="1">
          <mxGeometry x="5" y="5" width="70" height="70" as="geometry" />
        </mxCell>
        <mxCell id="t6ezfYEOPhDP4UOzndGj-9" style="edgeStyle=none;rounded=0;orthogonalLoop=1;jettySize=auto;html=1;exitX=0;exitY=1;exitDx=0;exitDy=0;entryX=0.5;entryY=0;entryDx=0;entryDy=0;" parent="1" source="ZuQAkKAsYcVPwidDXJDo-1" target="t6ezfYEOPhDP4UOzndGj-12" edge="1">
          <mxGeometry relative="1" as="geometry">
            <mxPoint x="230.82352941176487" y="1031.8235294117649" as="targetPoint" />
          </mxGeometry>
        </mxCell>
        <mxCell id="t6ezfYEOPhDP4UOzndGj-21" value="IDENTIFIER" style="ellipse;whiteSpace=wrap;html=1;aspect=fixed;" parent="1" vertex="1">
          <mxGeometry x="-349" y="955" width="80" height="80" as="geometry" />
        </mxCell>
        <mxCell id="t6ezfYEOPhDP4UOzndGj-22" value="" style="group" parent="1" vertex="1" connectable="0">
          <mxGeometry x="451" y="1035" width="80" height="80" as="geometry" />
        </mxCell>
        <mxCell id="t6ezfYEOPhDP4UOzndGj-17" value="COLON" style="ellipse;whiteSpace=wrap;html=1;aspect=fixed;" parent="t6ezfYEOPhDP4UOzndGj-22" vertex="1">
          <mxGeometry width="80" height="80" as="geometry" />
        </mxCell>
        <mxCell id="t6ezfYEOPhDP4UOzndGj-18" value="" style="ellipse;whiteSpace=wrap;html=1;aspect=fixed;fillColor=none;" parent="t6ezfYEOPhDP4UOzndGj-22" vertex="1">
          <mxGeometry x="4.5" y="4.5" width="71" height="71" as="geometry" />
        </mxCell>
        <mxCell id="t6ezfYEOPhDP4UOzndGj-23" value="" style="group" parent="1" vertex="1" connectable="0">
          <mxGeometry x="292" y="1061" width="80" height="80" as="geometry" />
        </mxCell>
        <mxCell id="t6ezfYEOPhDP4UOzndGj-19" value="COMMA" style="ellipse;whiteSpace=wrap;html=1;aspect=fixed;" parent="t6ezfYEOPhDP4UOzndGj-23" vertex="1">
          <mxGeometry width="80" height="80" as="geometry" />
        </mxCell>
        <mxCell id="t6ezfYEOPhDP4UOzndGj-20" value="" style="ellipse;whiteSpace=wrap;html=1;aspect=fixed;fillColor=none;" parent="t6ezfYEOPhDP4UOzndGj-23" vertex="1">
          <mxGeometry x="6" y="6" width="68" height="68" as="geometry" />
        </mxCell>
        <mxCell id="t6ezfYEOPhDP4UOzndGj-24" value="" style="group" parent="1" vertex="1" connectable="0">
          <mxGeometry x="390" y="1147" width="80" height="80" as="geometry" />
        </mxCell>
        <mxCell id="t6ezfYEOPhDP4UOzndGj-15" value="DOT" style="ellipse;whiteSpace=wrap;html=1;aspect=fixed;" parent="t6ezfYEOPhDP4UOzndGj-24" vertex="1">
          <mxGeometry width="80" height="80" as="geometry" />
        </mxCell>
        <mxCell id="t6ezfYEOPhDP4UOzndGj-16" value="" style="ellipse;whiteSpace=wrap;html=1;aspect=fixed;fillColor=none;" parent="t6ezfYEOPhDP4UOzndGj-24" vertex="1">
          <mxGeometry x="7.5" y="7.5" width="65" height="65" as="geometry" />
        </mxCell>
        <mxCell id="t6ezfYEOPhDP4UOzndGj-14" style="edgeStyle=none;rounded=0;orthogonalLoop=1;jettySize=auto;html=1;exitX=0.5;exitY=1;exitDx=0;exitDy=0;entryX=0;entryY=0;entryDx=0;entryDy=0;" parent="1" source="ZuQAkKAsYcVPwidDXJDo-1" target="t6ezfYEOPhDP4UOzndGj-18" edge="1">
          <mxGeometry relative="1" as="geometry">
            <mxPoint x="339.0588235294117" y="1065.9411764705883" as="targetPoint" />
          </mxGeometry>
        </mxCell>
        <mxCell id="t6ezfYEOPhDP4UOzndGj-26" value="&#39;:&#39;" style="text;html=1;align=center;verticalAlign=middle;resizable=0;points=[];autosize=1;strokeColor=none;fillColor=none;" parent="1" vertex="1">
          <mxGeometry x="422" y="928" width="26" height="26" as="geometry" />
        </mxCell>
        <mxCell id="t6ezfYEOPhDP4UOzndGj-27" style="edgeStyle=none;rounded=0;orthogonalLoop=1;jettySize=auto;html=1;exitX=0.5;exitY=1;exitDx=0;exitDy=0;entryX=0.5;entryY=0;entryDx=0;entryDy=0;" parent="1" source="ZuQAkKAsYcVPwidDXJDo-1" target="t6ezfYEOPhDP4UOzndGj-15" edge="1">
          <mxGeometry relative="1" as="geometry" />
        </mxCell>
        <mxCell id="t6ezfYEOPhDP4UOzndGj-28" value="&#39;.&#39;" style="text;html=1;align=center;verticalAlign=middle;resizable=0;points=[];autosize=1;strokeColor=none;fillColor=none;" parent="1" vertex="1">
          <mxGeometry x="387" y="1016" width="26" height="26" as="geometry" />
        </mxCell>
        <mxCell id="t6ezfYEOPhDP4UOzndGj-29" style="edgeStyle=none;rounded=0;orthogonalLoop=1;jettySize=auto;html=1;exitX=0.5;exitY=1;exitDx=0;exitDy=0;entryX=0.5;entryY=0;entryDx=0;entryDy=0;" parent="1" source="ZuQAkKAsYcVPwidDXJDo-1" target="t6ezfYEOPhDP4UOzndGj-20" edge="1">
          <mxGeometry relative="1" as="geometry" />
        </mxCell>
        <mxCell id="t6ezfYEOPhDP4UOzndGj-30" value="&#39;,&#39;" style="text;html=1;align=center;verticalAlign=middle;resizable=0;points=[];autosize=1;strokeColor=none;fillColor=none;" parent="1" vertex="1">
          <mxGeometry x="302" y="968" width="26" height="26" as="geometry" />
        </mxCell>
        <mxCell id="t6ezfYEOPhDP4UOzndGj-34" value="{[A=Z], &#39;_&#39;}" style="text;html=1;align=center;verticalAlign=middle;resizable=0;points=[];autosize=1;strokeColor=none;fillColor=none;" parent="1" vertex="1">
          <mxGeometry x="-188" y="752" width="73" height="26" as="geometry" />
        </mxCell>
        <mxCell id="t6ezfYEOPhDP4UOzndGj-33" style="edgeStyle=none;rounded=0;orthogonalLoop=1;jettySize=auto;html=1;exitX=0;exitY=0.5;exitDx=0;exitDy=0;entryX=1;entryY=0;entryDx=0;entryDy=0;" parent="1" source="ZuQAkKAsYcVPwidDXJDo-1" target="t6ezfYEOPhDP4UOzndGj-21" edge="1">
          <mxGeometry relative="1" as="geometry">
            <mxPoint x="-279.7647058823527" y="964.7647058823529" as="targetPoint" />
          </mxGeometry>
        </mxCell>
        <mxCell id="t6ezfYEOPhDP4UOzndGj-35" value="LITERAL&lt;div&gt;START&lt;/div&gt;" style="ellipse;whiteSpace=wrap;html=1;aspect=fixed;" parent="1" vertex="1">
          <mxGeometry x="236" y="1214" width="80" height="80" as="geometry" />
        </mxCell>
        <mxCell id="t6ezfYEOPhDP4UOzndGj-37" value="MULTILINE LITERAL" style="ellipse;whiteSpace=wrap;html=1;aspect=fixed;" parent="1" vertex="1">
          <mxGeometry x="-346" y="1162" width="80" height="80" as="geometry" />
        </mxCell>
        <mxCell id="t6ezfYEOPhDP4UOzndGj-38" value="NUMBER" style="ellipse;whiteSpace=wrap;html=1;aspect=fixed;" parent="1" vertex="1">
          <mxGeometry x="490" width="80" height="80" as="geometry" />
        </mxCell>
        <mxCell id="t6ezfYEOPhDP4UOzndGj-39" value="WHITESPACE" style="ellipse;whiteSpace=wrap;html=1;aspect=fixed;" parent="1" vertex="1">
          <mxGeometry x="595" y="100" width="80" height="80" as="geometry" />
        </mxCell>
        <mxCell id="t6ezfYEOPhDP4UOzndGj-41" style="edgeStyle=none;rounded=0;orthogonalLoop=1;jettySize=auto;html=1;exitX=0;exitY=0.5;exitDx=0;exitDy=0;entryX=0.5;entryY=0;entryDx=0;entryDy=0;" parent="1" source="ZuQAkKAsYcVPwidDXJDo-1" target="t6ezfYEOPhDP4UOzndGj-37" edge="1">
          <mxGeometry relative="1" as="geometry">
            <mxPoint x="-265" y="1103" as="targetPoint" />
          </mxGeometry>
        </mxCell>
        <mxCell id="t6ezfYEOPhDP4UOzndGj-42" value="&quot;\\&quot;" style="text;html=1;align=center;verticalAlign=middle;resizable=0;points=[];autosize=1;strokeColor=none;fillColor=none;" parent="1" vertex="1">
          <mxGeometry x="-180" y="911" width="33" height="26" as="geometry" />
        </mxCell>
        <mxCell id="t6ezfYEOPhDP4UOzndGj-46" style="edgeStyle=none;rounded=0;orthogonalLoop=1;jettySize=auto;html=1;exitX=0.5;exitY=1;exitDx=0;exitDy=0;entryX=0.5;entryY=0;entryDx=0;entryDy=0;" parent="1" source="ZuQAkKAsYcVPwidDXJDo-1" target="t6ezfYEOPhDP4UOzndGj-35" edge="1">
          <mxGeometry relative="1" as="geometry" />
        </mxCell>
        <mxCell id="t6ezfYEOPhDP4UOzndGj-47" value="&quot;" style="text;html=1;align=center;verticalAlign=middle;resizable=0;points=[];autosize=1;strokeColor=none;fillColor=none;" parent="1" vertex="1">
          <mxGeometry x="231" y="881" width="22" height="26" as="geometry" />
        </mxCell>
        <mxCell id="t6ezfYEOPhDP4UOzndGj-49" style="edgeStyle=none;rounded=0;orthogonalLoop=1;jettySize=auto;html=1;exitX=0.5;exitY=0;exitDx=0;exitDy=0;entryX=0.5;entryY=1;entryDx=0;entryDy=0;" parent="1" source="ZuQAkKAsYcVPwidDXJDo-1" target="t6ezfYEOPhDP4UOzndGj-38" edge="1">
          <mxGeometry relative="1" as="geometry" />
        </mxCell>
        <mxCell id="t6ezfYEOPhDP4UOzndGj-52" value="[1-9]" style="text;html=1;align=center;verticalAlign=middle;resizable=0;points=[];autosize=1;strokeColor=none;fillColor=none;" parent="1" vertex="1">
          <mxGeometry x="349" y="201" width="42" height="26" as="geometry" />
        </mxCell>
        <mxCell id="t6ezfYEOPhDP4UOzndGj-53" value="" style="endArrow=classic;html=1;rounded=0;entryX=0.028;entryY=0.787;entryDx=0;entryDy=0;entryPerimeter=0;" parent="1" target="t6ezfYEOPhDP4UOzndGj-39" edge="1">
          <mxGeometry width="50" height="50" relative="1" as="geometry">
            <mxPoint x="171" y="467" as="sourcePoint" />
            <mxPoint x="8" y="593" as="targetPoint" />
          </mxGeometry>
        </mxCell>
        <mxCell id="t6ezfYEOPhDP4UOzndGj-54" value="{&#39;\n&#39;, &#39; &#39;}" style="text;html=1;align=center;verticalAlign=middle;resizable=0;points=[];autosize=1;strokeColor=none;fillColor=none;" parent="1" vertex="1">
          <mxGeometry x="401" y="242.5" width="55" height="26" as="geometry" />
        </mxCell>
        <mxCell id="t6ezfYEOPhDP4UOzndGj-56" style="edgeStyle=none;rounded=0;orthogonalLoop=1;jettySize=auto;html=1;exitX=1;exitY=0;exitDx=0;exitDy=0;entryX=0;entryY=0.5;entryDx=0;entryDy=0;" parent="1" source="ZuQAkKAsYcVPwidDXJDo-1" target="t6ezfYEOPhDP4UOzndGj-57" edge="1">
          <mxGeometry relative="1" as="geometry">
            <mxPoint x="768" y="178.30769230769238" as="targetPoint" />
          </mxGeometry>
        </mxCell>
        <mxCell id="t6ezfYEOPhDP4UOzndGj-61" value="" style="group" parent="1" vertex="1" connectable="0">
          <mxGeometry x="768" y="134" width="80" height="80" as="geometry" />
        </mxCell>
        <mxCell id="t6ezfYEOPhDP4UOzndGj-57" value="ZERO" style="ellipse;whiteSpace=wrap;html=1;aspect=fixed;" parent="t6ezfYEOPhDP4UOzndGj-61" vertex="1">
          <mxGeometry width="80" height="80" as="geometry" />
        </mxCell>
        <mxCell id="t6ezfYEOPhDP4UOzndGj-59" value="" style="ellipse;whiteSpace=wrap;html=1;aspect=fixed;fillColor=none;" parent="t6ezfYEOPhDP4UOzndGj-61" vertex="1">
          <mxGeometry x="8.5" y="8.5" width="63" height="63" as="geometry" />
        </mxCell>
        <mxCell id="t6ezfYEOPhDP4UOzndGj-62" value="&#39;0&#39;" style="text;html=1;align=center;verticalAlign=middle;resizable=0;points=[];autosize=1;strokeColor=none;fillColor=none;" parent="1" vertex="1">
          <mxGeometry x="579.5" y="227" width="29" height="26" as="geometry" />
        </mxCell>
        <mxCell id="t6ezfYEOPhDP4UOzndGj-63" value="" style="curved=1;endArrow=classic;html=1;rounded=0;entryX=0;entryY=0.5;entryDx=0;entryDy=0;exitX=0;exitY=0.5;exitDx=0;exitDy=0;" parent="1" source="hgPsBDcdBSowXGrfZS2o-125" target="t6ezfYEOPhDP4UOzndGj-21" edge="1">
          <mxGeometry width="50" height="50" relative="1" as="geometry">
            <mxPoint x="-562" y="992" as="sourcePoint" />
            <mxPoint x="-512" y="942" as="targetPoint" />
            <Array as="points">
              <mxPoint x="-801" y="917" />
              <mxPoint x="-683" y="972" />
              <mxPoint x="-562" y="942" />
            </Array>
          </mxGeometry>
        </mxCell>
        <mxCell id="t6ezfYEOPhDP4UOzndGj-64" value="{[A-Z], [0-9]}" style="text;html=1;align=center;verticalAlign=middle;resizable=0;points=[];autosize=1;strokeColor=none;fillColor=none;" parent="1" vertex="1">
          <mxGeometry x="-745" y="915" width="83" height="26" as="geometry" />
        </mxCell>
        <mxCell id="t6ezfYEOPhDP4UOzndGj-76" value="" style="endArrow=classic;html=1;rounded=0;entryX=0.538;entryY=0;entryDx=0;entryDy=0;entryPerimeter=0;" parent="1" target="JhTqxUIouovbYvLP81V_-1" edge="1">
          <mxGeometry width="50" height="50" relative="1" as="geometry">
            <mxPoint x="-190" y="1115" as="sourcePoint" />
            <mxPoint x="-111" y="1285" as="targetPoint" />
          </mxGeometry>
        </mxCell>
        <mxCell id="t6ezfYEOPhDP4UOzndGj-77" value="&#39;@&#39;" style="text;html=1;align=center;verticalAlign=middle;resizable=0;points=[];autosize=1;strokeColor=none;fillColor=none;" parent="1" vertex="1">
          <mxGeometry x="-161" y="1162" width="35" height="26" as="geometry" />
        </mxCell>
        <mxCell id="t6ezfYEOPhDP4UOzndGj-81" value="" style="group" parent="1" vertex="1" connectable="0">
          <mxGeometry x="50.5" y="-17" width="80" height="80" as="geometry" />
        </mxCell>
        <mxCell id="t6ezfYEOPhDP4UOzndGj-79" value="VERTICAL&lt;div&gt;BAR&lt;/div&gt;" style="ellipse;whiteSpace=wrap;html=1;aspect=fixed;" parent="t6ezfYEOPhDP4UOzndGj-81" vertex="1">
          <mxGeometry width="80" height="80" as="geometry" />
        </mxCell>
        <mxCell id="t6ezfYEOPhDP4UOzndGj-80" value="" style="ellipse;whiteSpace=wrap;html=1;aspect=fixed;fillColor=none;" parent="t6ezfYEOPhDP4UOzndGj-81" vertex="1">
          <mxGeometry x="4.5" y="4.5" width="71" height="71" as="geometry" />
        </mxCell>
        <mxCell id="t6ezfYEOPhDP4UOzndGj-78" style="edgeStyle=none;rounded=0;orthogonalLoop=1;jettySize=auto;html=1;exitX=0.5;exitY=0;exitDx=0;exitDy=0;entryX=0.5;entryY=1;entryDx=0;entryDy=0;" parent="1" source="ZuQAkKAsYcVPwidDXJDo-1" target="t6ezfYEOPhDP4UOzndGj-79" edge="1">
          <mxGeometry relative="1" as="geometry">
            <mxPoint x="94.15384615384619" y="72.15384615384619" as="targetPoint" />
          </mxGeometry>
        </mxCell>
        <mxCell id="t6ezfYEOPhDP4UOzndGj-82" value="&#39;|&#39;" style="text;html=1;align=center;verticalAlign=middle;resizable=0;points=[];autosize=1;strokeColor=none;fillColor=none;" parent="1" vertex="1">
          <mxGeometry x="104" y="88" width="26" height="26" as="geometry" />
        </mxCell>
        <mxCell id="dyz0WLdo-vAfkHf0MR1h-1" style="edgeStyle=orthogonalEdgeStyle;curved=1;rounded=0;orthogonalLoop=1;jettySize=auto;html=1;exitX=0;exitY=0;exitDx=0;exitDy=0;entryX=1;entryY=0;entryDx=0;entryDy=0;" parent="1" source="t6ezfYEOPhDP4UOzndGj-39" target="t6ezfYEOPhDP4UOzndGj-39" edge="1">
          <mxGeometry relative="1" as="geometry">
            <Array as="points">
              <mxPoint x="607" y="36" />
              <mxPoint x="666" y="36" />
              <mxPoint x="666" y="70" />
              <mxPoint x="663" y="70" />
            </Array>
          </mxGeometry>
        </mxCell>
        <mxCell id="dyz0WLdo-vAfkHf0MR1h-2" value="{&#39; &#39;, &#39;\n&#39;}" style="text;html=1;align=center;verticalAlign=middle;resizable=0;points=[];autosize=1;strokeColor=none;fillColor=none;" parent="1" vertex="1">
          <mxGeometry x="616" y="13" width="55" height="26" as="geometry" />
        </mxCell>
        <mxCell id="dyz0WLdo-vAfkHf0MR1h-5" style="edgeStyle=orthogonalEdgeStyle;curved=1;rounded=0;orthogonalLoop=1;jettySize=auto;html=1;exitX=0;exitY=0;exitDx=0;exitDy=0;entryX=0;entryY=1;entryDx=0;entryDy=0;" parent="1" source="t6ezfYEOPhDP4UOzndGj-35" target="t6ezfYEOPhDP4UOzndGj-35" edge="1">
          <mxGeometry relative="1" as="geometry">
            <Array as="points">
              <mxPoint x="248" y="1194" />
              <mxPoint x="147" y="1194" />
              <mxPoint x="147" y="1314" />
              <mxPoint x="248" y="1314" />
            </Array>
          </mxGeometry>
        </mxCell>
        <mxCell id="dyz0WLdo-vAfkHf0MR1h-6" value="ELSE" style="text;html=1;align=center;verticalAlign=middle;resizable=0;points=[];autosize=1;strokeColor=none;fillColor=none;" parent="1" vertex="1">
          <mxGeometry x="139" y="1233" width="49" height="26" as="geometry" />
        </mxCell>
        <mxCell id="dyz0WLdo-vAfkHf0MR1h-9" value="" style="group" parent="1" vertex="1" connectable="0">
          <mxGeometry x="345" y="1322" width="80" height="80" as="geometry" />
        </mxCell>
        <mxCell id="dyz0WLdo-vAfkHf0MR1h-7" value="LITERAL&lt;div&gt;END&lt;/div&gt;" style="ellipse;whiteSpace=wrap;html=1;aspect=fixed;" parent="dyz0WLdo-vAfkHf0MR1h-9" vertex="1">
          <mxGeometry width="80" height="80" as="geometry" />
        </mxCell>
        <mxCell id="dyz0WLdo-vAfkHf0MR1h-8" value="" style="ellipse;whiteSpace=wrap;html=1;aspect=fixed;fillColor=none;" parent="dyz0WLdo-vAfkHf0MR1h-9" vertex="1">
          <mxGeometry x="8.5" y="8.5" width="63" height="63" as="geometry" />
        </mxCell>
        <mxCell id="dyz0WLdo-vAfkHf0MR1h-11" value="" style="endArrow=classic;html=1;rounded=0;curved=1;exitX=1;exitY=1;exitDx=0;exitDy=0;entryX=0;entryY=0;entryDx=0;entryDy=0;" parent="1" source="t6ezfYEOPhDP4UOzndGj-35" target="dyz0WLdo-vAfkHf0MR1h-7" edge="1">
          <mxGeometry width="50" height="50" relative="1" as="geometry">
            <mxPoint x="426" y="1250" as="sourcePoint" />
            <mxPoint x="476" y="1200" as="targetPoint" />
          </mxGeometry>
        </mxCell>
        <mxCell id="dyz0WLdo-vAfkHf0MR1h-12" value="&quot;" style="text;html=1;align=center;verticalAlign=middle;resizable=0;points=[];autosize=1;strokeColor=none;fillColor=none;" parent="1" vertex="1">
          <mxGeometry x="331" y="1284" width="22" height="26" as="geometry" />
        </mxCell>
        <mxCell id="JhTqxUIouovbYvLP81V_-6" style="edgeStyle=none;rounded=0;orthogonalLoop=1;jettySize=auto;html=1;exitX=1;exitY=0.5;exitDx=0;exitDy=0;" edge="1" parent="1" source="JhTqxUIouovbYvLP81V_-1">
          <mxGeometry relative="1" as="geometry">
            <mxPoint x="10" y="1344.3333333333335" as="targetPoint" />
          </mxGeometry>
        </mxCell>
        <mxCell id="JhTqxUIouovbYvLP81V_-1" value="IMPORT&lt;div&gt;BEGIN&lt;/div&gt;" style="ellipse;whiteSpace=wrap;html=1;aspect=fixed;" vertex="1" parent="1">
          <mxGeometry x="-149" y="1294" width="80" height="80" as="geometry" />
        </mxCell>
        <mxCell id="JhTqxUIouovbYvLP81V_-4" value="" style="group" vertex="1" connectable="0" parent="1">
          <mxGeometry x="8" y="1301" width="80" height="80" as="geometry" />
        </mxCell>
        <mxCell id="JhTqxUIouovbYvLP81V_-2" value="IMPORT&lt;div&gt;ACCEPT&lt;/div&gt;" style="ellipse;whiteSpace=wrap;html=1;aspect=fixed;" vertex="1" parent="JhTqxUIouovbYvLP81V_-4">
          <mxGeometry width="80" height="80" as="geometry" />
        </mxCell>
        <mxCell id="JhTqxUIouovbYvLP81V_-3" value="" style="ellipse;whiteSpace=wrap;html=1;aspect=fixed;fillColor=none;" vertex="1" parent="JhTqxUIouovbYvLP81V_-4">
          <mxGeometry x="8.5" y="9" width="62" height="62" as="geometry" />
        </mxCell>
        <mxCell id="JhTqxUIouovbYvLP81V_-7" value="&quot;import&quot;" style="text;html=1;align=center;verticalAlign=middle;resizable=0;points=[];autosize=1;strokeColor=none;fillColor=none;" vertex="1" parent="1">
          <mxGeometry x="-55" y="1311" width="60" height="26" as="geometry" />
        </mxCell>
      </root>
    </mxGraphModel>
  </diagram>
</mxfile>
